<svg xmlns="http://www.w3.org/2000/svg" xmlns:xlink="http://www.w3.org/1999/xlink" width="466.616" height="549.354" aria-label="Isolade" viewBox="-16 -16 466.616 549.354"><defs><linearGradient id="a"><stop offset="0" style="stop-color:#feeb7b;stop-opacity:1"/><stop offset="1" style="stop-color:#f99616;stop-opacity:1"/></linearGradient><linearGradient id="b"><stop offset="0" style="stop-color:#feeb7b;stop-opacity:1"/><stop offset="1" style="stop-color:#f99616;stop-opacity:1"/></linearGradient><linearGradient xlink:href="#a" id="v" x1="239.83" x2="378.278" y1="443.591" y2="580.039" gradientTransform="translate(-7.653 -11)" gradientUnits="userSpaceOnUse"/><linearGradient xlink:href="#b" id="d" x1="61.83" x2="378.278" y1="263.591" y2="580.039" gradientTransform="translate(-6.867 -11)" gradientUnits="userSpaceOnUse"/><linearGradient xlink:href="#c" id="n" x1="-13.134" x2="-13.134" y1="-26.268" y2="0" gradientTransform="scale(.57104 1.75119)" gradientUnits="userSpaceOnUse"/><linearGradient xlink:href="#c" id="m" x1="-13.134" x2="-13.134" y1="-26.268" y2="0" gradientTransform="scale(.57104 1.75119)" gradientUnits="userSpaceOnUse"/><linearGradient xlink:href="#c" id="p" x1="-14.646" x2="-14.646" y1="-29.292" y2="0" gradientTransform="scale(.5633 1.77525)" gradientUnits="userSpaceOnUse"/><linearGradient xlink:href="#c" id="o" x1="-14.646" x2="-14.646" y1="-29.292" y2="0" gradientTransform="scale(.5633 1.77525)" gradientUnits="userSpaceOnUse"/><linearGradient xlink:href="#c" id="r" x1="-13.134" x2="-13.134" y1="-26.268" y2="0" gradientTransform="scale(.57104 1.75119)" gradientUnits="userSpaceOnUse"/><linearGradient xlink:href="#c" id="q" x1="-13.134" x2="-13.134" y1="-26.268" y2="0" gradientTransform="scale(.57104 1.75119)" gradientUnits="userSpaceOnUse"/><linearGradient xlink:href="#c" id="l" x1="-23.093" x2="-23.093" y1="-52.24" y2="0" gradientTransform="scale(1.01448 .98573)" gradientUnits="userSpaceOnUse"/><path id="w" d="M376.917 400.266h56.704v179.008h-56.704z"/></defs><path d="M-9.729 367.196q6.38.39 11.654.586 5.339.195 9.505.195 4.102 0 9.18-.195 5.143-.196 11.393-.586v5.86h-1.367q-4.492 0-6.445.91-1.888.912-2.735 3.32-.716 2.02-1.041 7.944-.326 5.924-.326 21.289v26.757q0 9.18.326 12.76.39 3.516 1.302 5.144.911 1.628 3.06 2.344t6.38.716h1.627v5.86q-7.161-.391-12.565-.587-5.403-.195-9.18-.195-3.45 0-8.919.195-5.468.196-12.695.586v-5.86h1.628q4.362 0 6.51-.715 2.149-.716 2.93-2.344.976-1.823 1.367-5.925.39-4.166.39-15.039v-38.085q0-8.073-.39-11.263-.326-3.256-1.237-4.818-.846-1.563-2.995-2.279-2.083-.716-6.054-.716H-9.73zm99.675 29.557q0 4.102.39 8.333.39 4.167 1.237 8.464l-6.445 1.237q-.781-7.227-4.297-10.547t-10.221-3.32q-5.274 0-8.594 2.669-3.255 2.604-3.255 6.77 0 5.795 15.17 10.417l.455.13q11.328 3.451 15.43 7.618 4.166 4.166 4.166 11.328 0 9.635-8.138 15.95t-20.963 6.315q-5.209 0-10.287-1.041-5.013-.977-9.7-2.995.065-.716.065-1.628.065-.911.065-2.734 0-3.646-.326-7.227-.325-3.58-.976-7.03l5.99-1.498q1.497 8.92 5.533 12.956 4.037 3.97 11.393 3.97 6.25 0 9.896-2.799 3.711-2.799 3.711-7.617 0-5.729-16.08-11.133-2.67-.911-4.102-1.367-7.747-2.669-11.133-6.575-3.385-3.972-3.385-10.222 0-9.7 7.291-15.625 7.292-5.99 19.532-5.99 3.645 0 7.942.782 4.362.781 9.636 2.409m49.088 5.339q-8.008 0-12.435 5.99-4.362 5.924-4.362 16.796 0 13.216 5.013 20.963t13.477 7.748q8.073 0 12.695-6.25 4.688-6.25 4.688-17.123 0-12.955-5.209-20.507-5.143-7.617-13.867-7.617m1.302-8.53q15.3 0 25.065 9.441 9.766 9.375 9.766 23.763 0 15.104-10.222 25.26-10.156 10.091-25.39 10.091t-24.87-9.505-9.635-24.349q0-14.583 10.286-24.609 10.352-10.091 25-10.091m68.164-34.244q-.456 12.11-.651 23.112-.195 11.003-.195 21.029v28.906q0 9.96.325 13.932.326 3.906.977 5.339.65 1.432 2.409 2.148 1.757.716 4.557.716h1.497v5.6q-6.25-.391-10.872-.587-4.557-.195-7.552-.195-2.734 0-6.901.195-4.167.196-9.766.586V454.5q.326 0 .977.065.716.065 1.041.065 8.073 0 8.073-20.182.065-3.255.065-5.013l.13-29.752v-17.578q0-7.292-1.171-9.7-1.107-2.41-4.167-2.41-.846 0-1.823.13-.976.066-1.888.26l-.716-5.207q6.966-1.107 13.281-2.54 6.38-1.432 12.37-3.32m55.143 69.727q-1.432.39-4.166 1.171-18.62 5.144-18.62 12.175 0 3.906 2.539 6.575 2.539 2.605 6.38 2.605 2.474 0 5.599-1.237 3.19-1.237 8.268-4.232zm25.977 19.987 2.408 4.947q-5.924 3.907-10.677 5.86-4.687 1.888-8.398 1.888-4.492 0-6.901-2.279-2.344-2.344-2.734-7.031-7.097 4.948-11.98 7.161-4.882 2.149-8.789 2.149-6.835 0-11.653-5.274-4.818-5.338-4.818-12.76 0-12.5 27.93-18.945 6.054-1.433 9.505-2.279.065-1.627.065-3.125.065-1.562.065-2.995 0-6.966-2.734-10.156-2.67-3.19-8.594-3.19-3.841 0-6.64 1.563-2.735 1.562-2.93 3.645-.065.326-.065.847-.391 6.51-8.203 6.51-2.93 0-4.493-.976-1.562-.977-1.562-2.865 0-5.208 9.57-11.654 9.636-6.51 20.182-6.51 10.287 0 15.625 5.404 5.339 5.338 5.339 15.69 0 3.125-.52 12.955-.457 9.766-.457 16.472 0 3.971 1.042 5.729t3.255 1.758q1.237 0 3.06-.651t4.102-1.888m54.687-41.732q-3.58-2.083-6.901-3.06-3.32-1.042-6.576-1.042-8.854 0-13.802 5.86-4.882 5.794-4.882 16.536 0 11.393 4.948 18.23 4.947 6.835 13.085 6.835 2.865 0 6.25-1.172 3.45-1.172 7.748-3.646zm16.341-48.112q-.39 14.388-.716 29.818-.326 15.364-.586 32.747v19.271q0 8.138 1.042 10.351 1.106 2.214 3.906 2.214.976 0 2.018-.195 1.107-.26 2.409-.717l1.172 5.144q-5.794 2.278-11.849 3.385-6.055 1.172-12.826 1.237-.39-1.953-.65-4.297-.261-2.344-.456-5.338-5.925 4.362-11.003 6.445-5.013 2.018-9.765 2.018-11.98 0-19.727-8.789-7.747-8.854-7.747-22.786 0-15.56 9.7-25.26t25.26-9.701q3.32 0 6.706.586t7.162 1.823q0-.391.065-1.237.195-9.05.195-13.021 0-9.18-1.302-11.328-1.302-2.149-4.818-2.149-.586 0-1.562.13-.977.066-2.41.261l-.585-5.273q6.12-.782 12.63-2.084 6.576-1.367 13.737-3.255m76.302 66.21-27.148.066q-6.967 0-10.417.13-3.45.065-6.38.39 0 11.654 5.729 18.295 5.794 6.64 15.95 6.64 4.883 0 9.636-1.497 4.818-1.562 9.7-4.687l2.93 5.599q-7.552 5.99-14.844 8.984-7.291 2.93-14.453 2.93-13.607 0-22.33-9.05-8.724-9.114-8.724-23.372 0-15.495 9.44-25.846 9.44-10.417 23.177-10.417 12.304 0 19.922 8.724 7.617 8.659 7.812 23.112m-15.43-7.942q-1.367-7.617-5.013-11.849-3.58-4.297-8.593-4.297-5.99 0-9.896 4.623-3.906 4.622-4.883 12.955h4.102q8.007 0 13.932-.325 5.924-.39 10.351-1.107" aria-label="Isolade" style="font-weight:700;font-size:133.333px;font-family:&quot;Iowan Old Style&quot;;-inkscape-font-specification:&quot;Iowan Old Style, Bold&quot;;fill:url(#d)"/><g transform="translate(-24.362 -37.687)scale(.8946)"><defs><linearGradient id="h" x1="191.842" x2="191.842" y1="171.641" y2="372.619" gradientTransform="scale(.87572 1.14192)" gradientUnits="userSpaceOnUse"><stop offset="0%" stop-color="#fff58a"/><stop offset="30%" stop-color="#ffdd3d"/><stop offset="68%" stop-color="#ffc21c"/><stop offset="100%" stop-color="#f6a409"/></linearGradient><linearGradient id="g" x1="194.397" x2="194.397" y1="120.545" y2="355.058" gradientTransform="scale(.82142 1.2174)" gradientUnits="userSpaceOnUse"><stop offset="0%" stop-color="#bfe4f6" stop-opacity=".3"/><stop offset="55%" stop-color="#bfe4f6" stop-opacity=".14"/><stop offset="100%" stop-color="#9fd2ee" stop-opacity=".34"/></linearGradient><linearGradient id="f" x1="0" x2="1" y1="0" y2="1"><stop offset="0%" stop-color="#fff" stop-opacity=".95"/><stop offset="55%" stop-color="#e3f4fd" stop-opacity=".72"/><stop offset="100%" stop-color="#bfe6f7" stop-opacity=".62"/></linearGradient><linearGradient id="c" x1="0" x2="0" y1="0" y2="1"><stop offset="0%" stop-color="#86dd8e"/><stop offset="100%" stop-color="#2f9c4a"/></linearGradient><linearGradient id="s" x1="502.396" x2="502.396" y1="73.348" y2="146.697" gradientTransform="scale(.35606 2.80851)" gradientUnits="userSpaceOnUse"><stop offset="0%" stop-color="#fff" stop-opacity=".5"/><stop offset="100%" stop-color="#fff" stop-opacity="0"/></linearGradient><g id="j"><circle r="42" fill="#f3b81e"/><circle r="37" fill="#fff8de"/><circle r="32" fill="url(#e)"/><g stroke="#fff8de" stroke-linecap="round" stroke-width="3"><path d="M0-4v-26M2.828-2.828l18.385-18.385M4 0h26M2.828 2.828l18.385 18.385M0 4v26M-2.828 2.828l-18.385 18.385M-4 0h-26M-2.828-2.828l-18.385-18.385"/></g><circle r="4.5" fill="#fff8de"/><circle r="42" fill="none" stroke="#e0a40c" stroke-width="1.5" opacity=".5"/><path fill="none" stroke="#fff" stroke-linecap="round" stroke-width="4" d="M-22-28a36 36 0 0 1 40-4" opacity=".55"/></g><g id="k"><rect width="56" height="56" x="-28" y="-28" fill="url(#f)" stroke="#9fd2ee" stroke-opacity=".8" stroke-width="2.5" rx="13"/><path fill="#fff" d="M-20-22H6L-6 16-20 6Z" opacity=".5"/><rect width="16" height="13" x="-21" y="-21" fill="#fff" opacity=".8" rx="5"/><path stroke="#fff" stroke-linecap="round" stroke-width="2.5" d="M-19-24h36" opacity=".9"/><circle cx="13" cy="14" r="3" fill="#fff" opacity=".9"/><circle cx="-15" cy="18" r="1.6" fill="#fff" opacity=".85"/></g><g id="t"><path fill="#bfe4f6" d="M0-2c5 7 5 14 0 15-5-1-5-8 0-15" opacity=".7"/><circle cx="-1.5" cy="4" r="1.6" fill="#fff" opacity=".9"/></g><radialGradient id="i" cx="117.119" cy="424.485" r="51.148" fx="117.119" fy="424.485" gradientTransform="scale(2.18581 .4575)" gradientUnits="userSpaceOnUse"><stop offset="0%" stop-color="#fff8c4"/><stop offset="100%" stop-color="#ffe06a"/></radialGradient><radialGradient id="e" cx=".5" cy=".5" r=".5"><stop offset="0%" stop-color="#fff6b0"/><stop offset="100%" stop-color="#ffd33d"/></radialGradient><path id="u" fill="#ffe06a" d="M0-12C1.6-3 3-1.6 12 0 3 1.6 1.6 3 0 12-1.6 3-3 1.6-12 0-3-1.6-1.6-3 0-12"/></defs><path fill="url(#g)" stroke="#9fd2ee" stroke-opacity=".55" stroke-width="2.5" d="m161 158 17 262q78 22 156 0l17-262q-95-20-190 0z" style="fill:url(#g)"/><path fill="url(#h)" d="M168 196q88 22 176 0l-12 219q-76 21-152 0z" style="fill:url(#h)"/><ellipse cx="256" cy="196" fill="url(#i)" rx="86" ry="18" style="fill:url(#i)"/><ellipse cx="256" cy="194" fill="#fff" opacity=".28" rx="70" ry="11"/><g fill="#fff6c8" opacity=".7"><circle cx="232" cy="300" r="5"/><circle cx="272" cy="338" r="4"/><circle cx="226" cy="362" r="3"/><circle cx="292" cy="306" r="4.5"/><circle cx="256" cy="392" r="3.5"/><circle cx="300" cy="360" r="3"/><circle cx="210" cy="330" r="2.5"/></g><g fill="#fff" opacity=".7"><circle cx="230" cy="298" r="1.6"/><circle cx="270" cy="336" r="1.4"/><circle cx="290" cy="304" r="1.5"/></g><use href="#j" transform="rotate(-12 1154.094 -821.408)scale(.56)"/><use href="#k" transform="rotate(-14 964.44 -886.038)"/><use href="#k" transform="rotate(12 -860.78 1557.44)scale(.9)"/><use href="#k" transform="rotate(-6 2594.467 -2408.791)scale(.82)"/><g transform="rotate(15 -421.682 1199.172)"><rect width="20" height="210" x="-10" y="-120" fill="#fff" stroke="#ffd1d8" stroke-width="1.5" rx="10"/><g fill="#ff7a90"><path d="M-10-96h20v13h-20zM-10-64h20v13h-20zM-10-32h20v13h-20zM-10 0h20v13h-20zM-10 32h20v13h-20zM-10 64h20v13h-20z"/></g><ellipse cy="-120" fill="#f0b6c0" rx="10" ry="3.5"/></g><g fill="url(#c)" style="fill:url(#l)" transform="rotate(-16 633.768 -585.73)"><g style="fill:url(#m)" transform="rotate(-30)"><path d="M0 0c10-14 10-34 0-46-10 12-10 32 0 46" style="fill:url(#n)"/><path fill="none" stroke="#2a8a42" stroke-width="1.5" d="M0-3v-39"/></g><g style="fill:url(#o)" transform="rotate(8)"><path d="M0 0c11-15 11-38 0-52-11 14-11 37 0 52" style="fill:url(#p)"/><path fill="none" stroke="#2a8a42" stroke-width="1.5" d="M0-3v-44"/></g><g style="fill:url(#q)" transform="rotate(40)"><path d="M0 0c10-14 10-34 0-46-10 12-10 32 0 46" style="fill:url(#r)"/><path fill="none" stroke="#2a8a42" stroke-width="1.5" d="M0-3v-39"/></g></g><path fill="url(#s)" d="M184 206c-9 84-6 154 8 206l13-4c-13-50-15-118-5-197Z" style="fill:url(#s)"/><path fill="none" stroke="#fff" stroke-linecap="round" stroke-width="3" d="M340 208c8 92 4 164-10 206" opacity=".5"/><ellipse cx="256" cy="158" fill="none" stroke="#9fd2ee" stroke-width="3.5" opacity=".85" rx="95" ry="20"/><ellipse cx="256" cy="158" fill="none" stroke="#fff" opacity=".5" rx="95" ry="20"/><use href="#j" transform="rotate(16 -364.653 1277.497)scale(.92)"/><use href="#t" transform="matrix(1.1 0 0 1.1 193 300)"/><use href="#t" transform="matrix(.8 0 0 .8 185 350)"/><use href="#t" transform="matrix(.9 0 0 .9 214 404)"/><use href="#t" transform="translate(330 330)"/><use href="#t" transform="matrix(.8 0 0 .8 305 392)"/><use href="#t" transform="matrix(.7 0 0 .7 338 384)"/><use href="#u" transform="matrix(.75 0 0 .75 306 178)"/><use href="#u" transform="matrix(.45 0 0 .45 212 184)"/><use href="#u" transform="matrix(.6 0 0 .6 372 120)"/><use href="#u" transform="matrix(.35 0 0 .35 243 238)"/></g><path d="M36.69 481.423q1.905.148 3.34.222t2.424.075q.965 0 2.4-.075 1.435-.074 3.29-.222l-.321 1.732h-.792q-1.36 0-1.905.37-.544.372-.544 1.238 0 .247.099.668.099.395.247.84l4.28 12.222 8.239-11.751q.47-.643.742-1.287.272-.668.272-1.039 0-.643-.495-.965-.495-.346-1.46-.346-.272 0-.395.025h-.223l.297-1.707q2.227.148 3.167.198t1.509.05q.742 0 1.88-.05t3.068-.198l-.297 1.732h-.396q-1.757 0-3.414 2.127l-.149.198-11.602 15.462-1.41 8.956q-.05.297-.075.619-.025.296-.025.643 0 1.187.668 1.707.693.52 2.227.52h.742l-.247 1.731q-2.128-.148-3.612-.223-1.485-.074-2.425-.074-1.162 0-2.795.074-1.633.075-3.686.223l.321-1.732h.99q1.682 0 2.375-.668.692-.692 1.088-3.018l1.46-8.708-5.27-14.597q-.742-2.078-1.36-2.647-.594-.593-1.782-.593h-.766zm32.533 12.172q-2.87 0-4.948 3.933-2.078 3.934-2.078 9.698 0 3.043 1.039 4.651 1.064 1.608 3.067 1.608 3.019 0 5.122-3.86 2.127-3.883 2.127-9.5 0-3.339-1.064-4.922-1.063-1.608-3.265-1.608m1.064-2.4q3.686 0 5.59 2.3 1.93 2.277 1.93 6.68 0 2.524-.99 5.394-.989 2.845-2.671 5.145-1.806 2.474-4.107 3.81-2.276 1.312-4.8 1.312-3.314 0-5.294-2.4-1.954-2.4-1.954-6.432 0-2.994.965-5.839t2.77-5.146q1.782-2.3 4.033-3.562 2.276-1.262 4.528-1.262m33.72 19.767-3.414 3.191q-.916.89-1.658 1.262-.717.371-1.484.371-1.114 0-1.806-1.064-.668-1.088-.668-2.894 0-.52.074-1.237.099-.742.371-2.301-4.577 4.676-6.482 6.086t-3.24 1.41q-1.41 0-2.351-1.311-.94-1.311-.94-3.365 0-1.731 1.484-7.793.371-1.435.545-2.177.52-2.053.767-3.29.247-1.262.247-1.88 0-.495-.247-.792-.248-.322-.619-.322-.247 0-.965.347-.717.346-1.979 1.064l-.693-1.361q2.301-1.707 4.033-2.647 1.732-.965 2.45-.965 1.013 0 1.582.866.594.866.594 2.4 0 1.93-1.534 7.47-1.509 5.543-1.509 8.313 0 .866.297 1.287.297.396.915.396.693 0 2.35-1.361 1.683-1.385 5.617-5.27.94-4.453 1.509-7.52.593-3.093.915-5.517l4.453-1.064-.544 2.45q-1.41 6.01-1.534 6.704l-.594 3.166q-.445 2.251-.717 4.305-.248 2.053-.248 2.894 0 .57.223.891t.594.322q.346 0 1.286-.668t2.153-1.806zm27.98-15.66-1.385 1.31-.174-.148q-2.82-2.572-4.28-2.572-1.385 0-2.3.84-.89.817-.89 2.104 0 1.979 3.438 4.848.42.347.618.52 2.549 2.177 3.34 3.414.817 1.237.817 2.672 0 2.746-2.722 5.121-2.696 2.375-6.16 2.375-2.45 0-4.057-.841t-1.608-2.053q0-.47.148-.817.149-.346.668-.866l1.311-1.212q1.633 1.806 2.722 2.523t2.127.718q1.559 0 2.647-1.04 1.114-1.063 1.114-2.498 0-1.633-3.39-4.65-.89-.793-1.36-1.238-1.98-1.781-2.722-2.969t-.742-2.4q0-2.647 2.672-4.947 2.697-2.301 5.888-2.301 2.128 0 3.538.792 1.435.791 1.435 1.855 0 .42-.173.792-.174.346-.52.668m13.458 14.2.866 1.46q-3.043 3.142-4.23 4.008t-2.103.866q-1.311 0-2.103-1.089-.792-1.113-.792-2.969 0-2.325 1.46-7.768 1.484-5.443 1.484-7.842 0-.619-.296-.99-.297-.371-.767-.371-.396 0-1.04.322-.643.321-1.607.99l-.743-1.312 3.29-2.4q.94-.693 1.634-.99.692-.321 1.31-.321 1.163 0 1.831.965.693.94.693 2.597 0 1.806-1.286 7.076l-.446 1.781q-.692 2.796-1.063 4.627-.347 1.83-.347 2.523 0 .618.272 1.014t.693.396q.396 0 1.04-.495.642-.494 2.25-2.078m-.197-31.89 1.41 1.584q.593.619.816 1.113.247.47.247.965 0 .52-.37.99-.347.47-1.04.89l-2.177 1.213-1.583-1.88q-.495-.619-.643-.965-.149-.371-.149-.767 0-.57.297-.99.297-.445 1.014-.866zm9.524 34.414q1.163.668 2.227.99 1.064.32 2.028.32 3.043 0 5.196-4.081 2.152-4.107 2.152-9.945 0-2.227-.569-3.34-.569-1.114-1.707-1.114-1.435 0-6.309 4.528-.84.767-1.31 1.187zM157 488.573l1.83.643q-.445 1.46-.816 2.993-.346 1.534-.668 3.241l-.396 2.499.446-.495q5.59-6.036 8.114-6.036 2.276 0 3.686 2.25 1.435 2.252 1.435 5.988 0 2.82-1.088 5.863-1.089 3.018-2.92 5.344-1.88 2.375-4.082 3.637-2.177 1.237-4.477 1.237-.866 0-1.757-.248-.89-.222-1.954-.717l-1.213 7.916q-.074.446-.123.817-.025.37-.025.643 0 1.212.57 1.633.593.445 2.226.445h.791l-.346 1.707q-1.46-.099-2.895-.148-1.434-.05-2.87-.05-.865 0-3.512.124-1.163.05-1.806.074l.296-1.707h.767q1.41 0 1.955-.544.52-.544.816-2.202l4.156-24.517q.075-.371.198-1.113.446-2.647.866-4.305l-4.205 2.92-.446-1.658q1.93-1.41 3.785-2.969 1.88-1.558 3.662-3.266m21.969 20.31 1.385 1.535q.643.668.866 1.138.247.47.247.99 0 .692-.445 1.236-.42.544-1.435 1.089l-1.83.965-1.41-1.485q-.62-.618-.891-1.113-.273-.52-.273-1.064 0-.693.396-1.212.42-.544 1.311-1.014z" aria-label="You sip." style="font-style:italic;font-size:50.6667px;font-family:&quot;Iowan Old Style&quot;;-inkscape-font-specification:&quot;Iowan Old Style, Italic&quot;;fill:#fff"/><path d="M200.922 513.411q.173 0 .396.025h.618q1.708 0 2.425-.767.742-.792 1.187-3.488l4.157-25.012h-4.973q-2.548 0-3.612.99-1.039.964-1.707 3.81l-1.781-.199q.544-1.855.89-3.686.347-1.83.495-3.71 1.015.197 2.029.296 1.014.1 2.053.1h.767q.396-.026 1.188-.1h16.303q1.188 0 2.177-.074 1.014-.074 1.98-.223-.372 2.202-.57 3.983-.173 1.782-.247 3.414l-1.856.05v-.742q.025-.371.025-.718 0-1.633-.89-2.35-.891-.742-2.994-.841h-4.874l-4.007 24.319q-.124.742-.198 1.385-.05.619-.05 1.089 0 1.36.594 1.93.594.544 2.028.544h.619q.247-.025.445-.025l-.247 1.707q-1.781-.124-3.414-.173-1.608-.074-3.018-.074-.965 0-2.375.05-1.41.049-3.91.197zM236.3 476.55q-1.163 5.27-1.608 7.397-.446 2.103-.644 3.117l-2.177 11.282 4.157-3.959q2.078-1.979 3.142-2.597 1.088-.644 2.078-.644 1.657 0 2.672 1.41 1.039 1.41 1.039 3.761 0 2.4-1.213 7.422-1.212 4.997-1.212 7.125 0 .643.248.99.247.321.692.321.248 0 .57-.173.32-.198.667-.52l1.856-1.83.866 1.31-2.672 2.747q-.99.99-1.955 1.559-.94.569-1.657.569-1.212 0-2.004-1.064-.767-1.089-.767-2.845 0-2.103 1.262-7.397 1.261-5.32 1.261-7.744 0-.915-.395-1.46-.396-.569-1.015-.569-.915 0-4.676 3.464-2.102 1.954-3.438 3.117l-1.534 8.634q-.05.371-.173 1.089-.446 2.4-.52 3.686l-4.404 1.138q1.064-4.7 2.648-13.458l.272-1.534 1.138-6.185q.94-5.294 1.558-9.129t.619-4.354q0-.866-.396-1.262-.371-.42-1.188-.42-.42 0-.692.024-.248 0-.52.025l-.148-1.46q2.152-.297 4.23-.668 2.078-.395 4.033-.915m17.837 27.412.247-.124q8.808-4.503 8.808-6.952 0-1.311-.94-2.276t-2.202-.965q-1.955 0-3.513 2.697-1.559 2.696-2.4 7.62m7.447-1.707-7.57 3.908v.248q0 2.944.915 4.478.94 1.533 2.696 1.533 1.04 0 2.598-.915 1.583-.94 4.033-3.018l.865 1.558q-3.537 3.266-5.64 4.528-2.078 1.262-3.785 1.262-2.598 0-4.206-2.252t-1.608-5.913q0-2.597.841-5.566.866-2.993 2.227-5.22 1.707-2.721 3.908-4.206 2.202-1.484 4.552-1.484 2.4 0 4.008 1.534 1.633 1.509 1.633 3.686 0 1.756-.99 2.92-.964 1.137-4.477 2.919m4.997 20.707q.718.94 1.559 1.434.84.495 1.682.495 2.276 0 4.082-3.661 1.806-3.637 1.806-8.956 0-6.506-1.064-11.603-1.064-5.12-2.127-5.12-.446 0-.965.519-.52.494-1.633 2.078l-1.163-1.163q1.633-2.796 2.994-4.28 1.36-1.51 2.276-1.51 2.226 0 3.661 4.998 1.46 4.973 1.46 12.89 0 1.138-.05 2.276t-.148 2.251l.668-1.484q5.764-12.89 5.764-15.66 0-.718-.223-1.287-.222-.594-.742-1.138l1.584-1.682q.569-.619 1.039-.891t.965-.272q.791 0 1.237.52.445.519.445 1.41 0 1.583-2.524 7.62-2.498 6.011-6.382 13.26-4.256 7.892-7.25 11.133-2.968 3.265-5.838 3.265-1.534 0-2.424-.692-.916-.668-.916-1.806 0-.421.198-.817.174-.37.718-.89zm50.691-27.66-1.385 1.312-.173-.149q-2.82-2.572-4.28-2.572-1.385 0-2.3.84-.891.817-.891 2.104 0 1.979 3.438 4.848.42.347.619.52 2.548 2.177 3.34 3.414.816 1.237.816 2.672 0 2.746-2.721 5.121-2.697 2.375-6.16 2.375-2.45 0-4.058-.841t-1.608-2.053q0-.47.149-.817.148-.346.668-.866l1.31-1.212q1.634 1.806 2.722 2.523t2.128.718q1.558 0 2.647-1.04 1.113-1.063 1.113-2.498 0-1.633-3.39-4.65-.89-.793-1.36-1.238-1.979-1.781-2.721-2.969t-.742-2.4q0-2.647 2.672-4.947 2.696-2.301 5.888-2.301 2.127 0 3.537.792 1.435.791 1.435 1.855 0 .42-.173.792-.173.346-.52.668m15.042-18.752q-1.163 5.27-1.608 7.397-.445 2.103-.643 3.117l-2.177 11.282 4.156-3.959q2.078-1.979 3.142-2.597 1.089-.644 2.078-.644 1.658 0 2.672 1.41 1.039 1.41 1.039 3.761 0 2.4-1.212 7.422-1.212 4.997-1.212 7.125 0 .643.247.99.247.321.693.321.247 0 .569-.173.321-.198.668-.52l1.855-1.83.866 1.31-2.672 2.747q-.99.99-1.954 1.559-.94.569-1.658.569-1.212 0-2.004-1.064-.767-1.089-.767-2.845 0-2.103 1.262-7.397 1.262-5.32 1.262-7.744 0-.915-.396-1.46-.396-.569-1.014-.569-.916 0-4.676 3.464-2.103 1.954-3.439 3.117l-1.534 8.634q-.05.371-.173 1.089-.445 2.4-.52 3.686l-4.403 1.138q1.064-4.7 2.647-13.458l.272-1.534 1.138-6.185q.94-5.294 1.559-9.129.618-3.835.618-4.354 0-.866-.396-1.262-.37-.42-1.187-.42-.42 0-.693.024-.247 0-.52.025l-.148-1.46q2.152-.297 4.23-.668 2.079-.395 4.033-.915m23.7 32.953.867 1.46q-3.043 3.142-4.23 4.008t-2.104.866q-1.311 0-2.103-1.089-.791-1.113-.791-2.969 0-2.325 1.46-7.768 1.484-5.443 1.484-7.842 0-.619-.297-.99t-.767-.371q-.396 0-1.04.322-.642.321-1.607.99l-.742-1.312 3.29-2.4q.94-.693 1.633-.99.692-.321 1.311-.321 1.163 0 1.83.965.693.94.693 2.597 0 1.806-1.286 7.076l-.445 1.781q-.693 2.796-1.064 4.627-.347 1.83-.347 2.523 0 .618.273 1.014.272.396.692.396.396 0 1.04-.495.643-.494 2.25-2.078m-.197-31.89 1.41 1.584q.594.619.816 1.113.248.47.248.965 0 .52-.371.99-.347.47-1.04.89l-2.176 1.213-1.584-1.88q-.495-.619-.643-.965-.148-.371-.148-.767 0-.57.296-.99.297-.445 1.015-.866zm9.525 34.414q1.162.668 2.226.99 1.064.32 2.029.32 3.043 0 5.195-4.081 2.152-4.107 2.152-9.945 0-2.227-.569-3.34-.569-1.114-1.707-1.114-1.435 0-6.308 4.528-.841.767-1.311 1.187zm2.226-23.453 1.83.643q-.444 1.46-.816 2.993-.346 1.534-.668 3.241l-.395 2.499.445-.495q5.591-6.036 8.115-6.036 2.276 0 3.686 2.25 1.435 2.252 1.435 5.988 0 2.82-1.089 5.863-1.088 3.018-2.92 5.344-1.88 2.375-4.081 3.637-2.177 1.237-4.478 1.237-.866 0-1.757-.248-.89-.222-1.954-.717l-1.212 7.916q-.074.446-.124.817-.025.37-.025.643 0 1.212.57 1.633.593.445 2.226.445h.792l-.347 1.707q-1.46-.099-2.894-.148-1.435-.05-2.87-.05-.866 0-3.513.124-1.163.05-1.806.074l.297-1.707h.767q1.41 0 1.954-.544.52-.544.817-2.202l4.156-24.517q.074-.371.198-1.113.445-2.647.866-4.305l-4.206 2.92-.445-1.658q1.93-1.41 3.785-2.969 1.88-1.558 3.661-3.266m21.969 20.31 1.385 1.535q.644.668.866 1.138.248.47.248.99 0 .692-.446 1.236-.42.544-1.435 1.089l-1.83.965-1.41-1.485q-.619-.618-.891-1.113-.272-.52-.272-1.064 0-.693.396-1.212.42-.544 1.31-1.014z" aria-label="They ship." style="font-style:italic;font-size:50.6667px;font-family:&quot;Iowan Old Style&quot;;-inkscape-font-specification:&quot;Iowan Old Style, Italic&quot;;fill:url(#v)"/></svg>